<svg version="1.1" xmlns="http://www.w3.org/2000/svg" viewBox="0 0 1024 1024" width="1024" height="1024">
    <path d="M0 0 C0.92130707 -0.01283524 1.84261414 -0.02567047 2.7918396 -0.03889465 C3.78043976 -0.04628159 4.76903992 -0.05366852 5.78759766 -0.0612793 C6.81092194 -0.06935104 7.83424622 -0.07742279 8.88858032 -0.08573914 C11.05216793 -0.09955795 13.21577713 -0.11028993 15.37939453 -0.11816406 C18.68254891 -0.13539833 21.98470769 -0.17930745 25.28759766 -0.22338867 C27.39175698 -0.23351436 29.49592479 -0.24203085 31.60009766 -0.2487793 C32.58464935 -0.26628738 33.56920105 -0.28379547 34.58358765 -0.30183411 C40.34700195 -0.28365704 43.81191223 0.22277578 48.32666016 4.17700195 C49.81469727 5.83349609 49.81469727 5.83349609 50.85400391 7.4621582 C51.24990723 8.06962891 51.64581055 8.67709961 52.05371094 9.30297852 C52.45315918 9.94203125 52.85260742 10.58108398 53.26416016 11.23950195 C53.6945459 11.905625 54.12493164 12.57174805 54.56835938 13.25805664 C55.83416797 15.22310527 57.08334235 17.19766467 58.32666016 19.17700195 C62.36675322 25.5868441 66.46108433 31.86220361 70.95947266 37.9621582 C73.94292439 42.01394167 76.88411634 46.09546319 79.82666016 50.17700195 C80.95412264 51.7383022 82.08172397 53.29950218 83.20947266 54.8605957 C85.03901773 57.39343068 86.86726123 59.92718922 88.69384766 62.4621582 C92.36871822 67.54549084 96.12765803 72.5251087 100.07666016 77.3996582 C101.32666016 79.17700195 101.32666016 79.17700195 101.32666016 81.17700195 C101.98666016 81.17700195 102.64666016 81.17700195 103.32666016 81.17700195 C104.72934938 82.87191809 106.05056361 84.63483695 107.32666016 86.42700195 C108.02791016 87.4015332 108.72916016 88.37606445 109.45166016 89.38012695 C110.94857349 91.61302267 112.21243877 93.73964267 113.32666016 96.17700195 C113.98666016 96.17700195 114.64666016 96.17700195 115.32666016 96.17700195 C115.98666016 97.82700195 116.64666016 99.47700195 117.32666016 101.17700195 C117.98666016 101.17700195 118.64666016 101.17700195 119.32666016 101.17700195 C120.56103516 102.5480957 120.56103516 102.5480957 122.07666016 104.61450195 C130.9495117 116.32224797 140.39730572 127.4842281 150.49072266 138.15356445 C152.78409316 140.57927372 154.98156061 143.06638665 157.13916016 145.61450195 C159.94995945 148.88335743 163.05848556 151.60506327 166.34619141 154.3840332 C169.06668537 156.84696561 171.36666084 159.6010107 173.73681641 162.39575195 C175.72594047 164.62435287 177.95583443 166.36768758 180.32666016 168.17700195 C183.13916016 170.80200195 183.13916016 170.80200195 185.32666016 173.17700195 C185.32666016 173.83700195 185.32666016 174.49700195 185.32666016 175.17700195 C185.9122168 175.43964844 186.49777344 175.70229492 187.10107422 175.97290039 C189.43621152 177.23627217 191.03311678 178.59914275 192.93603516 180.44262695 C193.60892578 181.08586914 194.28181641 181.72911133 194.97509766 182.3918457 C195.66861328 183.06344727 196.36212891 183.73504883 197.07666016 184.42700195 C201.78887713 188.98692294 206.47168792 193.1966329 211.86669922 196.94165039 C212.34848633 197.34931641 212.83027344 197.75698242 213.32666016 198.17700195 C213.32666016 198.83700195 213.32666016 199.49700195 213.32666016 200.17700195 C214.64666016 200.50700195 215.96666016 200.83700195 217.32666016 201.17700195 C217.32666016 201.83700195 217.32666016 202.49700195 217.32666016 203.17700195 C217.84486328 203.40645508 218.36306641 203.6359082 218.89697266 203.87231445 C222.20325611 205.64771425 225.17432569 207.84738259 228.20166016 210.05200195 C229.99988184 211.35522928 231.79977637 212.65557269 233.60717773 213.94604492 C235.21116472 215.09432015 236.80264143 216.26001496 238.39306641 217.42700195 C241.53758217 219.30282494 243.77864665 219.86408161 247.38916016 220.30200195 C250.39063502 220.68056635 252.94632892 221.0205754 255.74853516 222.1730957 C258.99921342 223.43889012 262.04921708 223.73748742 265.51416016 224.11450195 C280.00790327 225.86148396 280.00790327 225.86148396 284.92333984 229.29101562 C287.06939592 232.1751985 286.71328766 234.67778744 286.73291016 238.23168945 C286.74374634 238.92908234 286.75458252 239.62647522 286.76574707 240.34500122 C286.79999631 242.58076037 286.81556704 244.81601544 286.82666016 247.05200195 C286.07215237 264.87536571 286.07215237 264.87536571 292.82666016 280.30200195 C293.65166016 280.92075195 294.47666016 281.53950195 295.32666016 282.17700195 C297.13916016 283.86450195 297.13916016 283.86450195 298.32666016 285.17700195 C298.32666016 285.83700195 298.32666016 286.49700195 298.32666016 287.17700195 C299.08978516 287.32137695 299.85291016 287.46575195 300.63916016 287.61450195 C304.30115212 289.74356705 304.59907869 291.9138852 305.68603516 295.8762207 C306.30876917 298.35985755 306.30876917 298.35985755 307.76416016 301.23950195 C308.60502868 305.63070423 306.7189564 308.53940082 304.32666016 312.17700195 C301.83160054 314.67206157 300.65337127 314.53648571 297.20166016 314.80200195 C296.29158203 314.87676758 295.38150391 314.9515332 294.44384766 315.02856445 C293.74517578 315.07754883 293.04650391 315.1265332 292.32666016 315.17700195 C289.51627166 322.13605917 289.05302497 328.42202876 289.26220703 335.81762695 C289.40822552 341.01387122 289.40822552 341.01387122 288.32666016 343.17700195 C287.0916084 350.48787193 287.0476708 357.96562267 286.89697266 365.3605957 C286.62122139 373.18503777 285.08863432 380.75868895 280.32666016 387.17700195 C279.66666016 387.17700195 279.00666016 387.17700195 278.32666016 387.17700195 C278.12943359 387.76352539 277.93220703 388.35004883 277.72900391 388.9543457 C273.57386771 395.54006296 261.30186168 398.82763696 254.02197266 400.5715332 C253.13251953 400.77133789 252.24306641 400.97114258 251.32666016 401.17700195 C250.13041016 401.51401123 248.93416016 401.85102051 247.70166016 402.19824219 C243.30231529 403.29619104 239.14874261 403.46617048 234.63134766 403.44262695 C233.81325119 403.44531082 232.99515472 403.44799469 232.15226746 403.45075989 C229.50190292 403.45468353 226.8519801 403.44207534 224.20166016 403.42700195 C223.29592255 403.42489716 222.39018494 403.42279236 221.45700073 403.42062378 C203.32078171 403.37125748 185.28106533 402.5820263 167.24072266 400.6340332 C162.73766435 400.17070331 158.25424429 400.00839174 153.73046875 399.88598633 C144.4510283 399.63388338 135.38366168 399.04812191 126.20166016 397.67700195 C106.76562837 394.85102158 86.99658466 395.11580051 67.38916016 395.05200195 C66.19339355 395.04724854 64.99762695 395.04249512 63.765625 395.03759766 C59.12892372 395.04657707 54.56994422 395.05824653 49.97119141 395.6887207 C45.05255171 396.34770244 40.25343621 396.14934607 35.30322266 396.0168457 C32.2072352 395.85103093 32.2072352 395.85103093 30.32666016 398.17700195 C24.61104498 399.95081356 19.16716736 400.38156883 13.20166016 400.42700195 C12.53312012 400.43618652 11.86458008 400.44537109 11.17578125 400.45483398 C6.57150011 400.42647551 2.70761287 399.51663212 -1.67333984 398.17700195 C-3.27217384 397.98117577 -4.87759742 397.82991422 -6.48583984 397.73950195 C-9.85821962 397.4610547 -12.76859045 396.91070902 -15.96240234 395.80981445 C-23.24329895 393.5673171 -30.70948283 392.53006555 -38.23583984 391.48950195 C-39.42478851 391.32366608 -39.42478851 391.32366608 -40.63775635 391.15447998 C-60.30384938 388.48665782 -79.87328551 388.63769865 -99.67333984 389.17700195 C-100.86717285 389.20600586 -102.06100586 389.23500977 -103.29101562 389.26489258 C-109.76237739 389.43647794 -116.21381916 389.75545494 -122.67333984 390.17700195 C-124.25091064 390.27368164 -124.25091064 390.27368164 -125.86035156 390.37231445 C-137.32093638 391.08932715 -148.61863674 391.9477253 -159.8996582 394.13476562 C-173.76144311 396.78660023 -199.04111253 400.59848683 -211.67333984 392.17700195 C-215.44321707 391.592021 -219.21420155 391.22265407 -223.00927734 390.8371582 C-226.66341703 390.17878975 -228.65872628 389.26202214 -231.67333984 387.17700195 C-232.82833984 386.55825195 -233.98333984 385.93950195 -235.17333984 385.30200195 C-238.55012689 383.38604234 -241.03298957 381.03738142 -243.67333984 378.17700195 C-244.27146484 377.64075195 -244.86958984 377.10450195 -245.48583984 376.55200195 C-246.67333984 375.17700195 -246.67333984 375.17700195 -246.67333984 372.17700195 C-247.66333984 371.84700195 -248.65333984 371.51700195 -249.67333984 371.17700195 C-250.55224609 368.9543457 -250.55224609 368.9543457 -251.23583984 366.11450195 C-251.48462891 365.10774414 -251.73341797 364.10098633 -251.98974609 363.0637207 C-252.21533203 362.11110352 -252.44091797 361.15848633 -252.67333984 360.17700195 C-253.00333984 358.93950195 -253.33333984 357.70200195 -253.67333984 356.42700195 C-254.01491766 355.01230052 -254.34696604 353.59528813 -254.67333984 352.17700195 C-254.91052734 351.15735352 -255.14771484 350.13770508 -255.39208984 349.0871582 C-257.75780061 338.19306013 -258.78018314 327.27491497 -259.67333984 316.17700195 C-260.21095947 315.98509277 -260.7485791 315.79318359 -261.30249023 315.59545898 C-262.01397217 315.33619629 -262.7254541 315.07693359 -263.45849609 314.80981445 C-264.16111572 314.55603027 -264.86373535 314.30224609 -265.58764648 314.04077148 C-268.93220695 312.65565444 -272.09795842 310.75238338 -274.67333984 308.17700195 C-275.63112929 299.87616007 -272.76942524 291.84544486 -268.18115234 284.92700195 C-265.35874049 281.53425817 -262.14420159 278.89740711 -258.67333984 276.17700195 C-255.1390655 272.62332629 -255.13803818 268.88563511 -254.97802734 264.12231445 C-254.94025177 263.34314667 -254.9024762 262.56397888 -254.86355591 261.76119995 C-254.74535537 259.27519489 -254.64608193 256.78888793 -254.54833984 254.30200195 C-254.43986703 251.82255454 -254.32743129 249.34334627 -254.21170044 246.86422729 C-254.14098442 245.32402404 -254.07503728 243.78359197 -254.01461792 242.24295044 C-253.66364136 234.04443225 -253.66364136 234.04443225 -252.67333984 230.17700195 C-250.20704197 228.77540742 -248.3379921 227.9681499 -245.67333984 227.17700195 C-245.00689453 226.96962402 -244.34044922 226.76224609 -243.65380859 226.54858398 C-241.50242309 225.90792893 -239.34219461 225.31813034 -237.17333984 224.73950195 C-236.38942871 224.52559814 -235.60551758 224.31169434 -234.79785156 224.09130859 C-231.06625975 223.0763126 -227.32903481 222.08396778 -223.58740234 221.10668945 C-216.78691248 219.32594262 -210.10296381 217.408884 -203.45849609 215.1105957 C-200.75739814 214.20517858 -198.04409791 213.43402914 -195.29833984 212.67700195 C-191.11639055 211.46006815 -188.18216982 209.72090368 -184.67333984 207.17700195 C-184.01333984 207.17700195 -183.35333984 207.17700195 -182.67333984 207.17700195 C-182.34333984 206.18700195 -182.01333984 205.19700195 -181.67333984 204.17700195 C-179.76574596 202.61839424 -177.85872371 201.17258681 -175.86083984 199.73950195 C-169.90107649 195.32526037 -164.75052087 190.48145179 -159.62255859 185.1340332 C-157.59237413 183.04537887 -155.48336096 181.13194638 -153.26318359 179.24731445 C-147.07737686 173.89926822 -141.36065938 168.05032364 -135.58203125 162.27099609 C-133.55146257 160.24262131 -131.5130106 158.22239894 -129.47412109 156.20239258 C-128.16243338 154.8936385 -126.85121935 153.58440947 -125.54052734 152.2746582 C-124.6403035 151.38521263 -124.6403035 151.38521263 -123.72189331 150.47779846 C-120.12074732 146.85736209 -116.98382183 143.09661544 -114.00686646 138.94602966 C-112.12699952 136.45223864 -109.90798654 134.35125279 -107.67333984 132.17700195 C-107.11646484 131.41387695 -106.55958984 130.65075195 -105.98583984 129.86450195 C-105.55271484 129.30762695 -105.11958984 128.75075195 -104.67333984 128.17700195 C-104.01333984 128.17700195 -103.35333984 128.17700195 -102.67333984 128.17700195 C-102.45033203 127.64461914 -102.22732422 127.11223633 -101.99755859 126.5637207 C-100.22176048 123.36309342 -97.87859192 120.73520403 -95.48583984 117.98950195 C-90.27555567 111.92522699 -85.11380127 105.8376941 -80.67333984 99.17700195 C-80.01333984 99.17700195 -79.35333984 99.17700195 -78.67333984 99.17700195 C-78.42841797 98.45770508 -78.18349609 97.7384082 -77.93115234 96.99731445 C-76.52090734 93.83521229 -74.7986856 91.67871216 -72.54833984 89.05200195 C-67.98323961 83.60309831 -63.80558465 77.95717605 -59.67333984 72.17700195 C-58.42438429 70.46790488 -57.174364 68.75958544 -55.92333984 67.05200195 C-48.94118387 57.44466529 -42.01117175 47.78925827 -35.48583984 37.86450195 C-32.89548739 33.92823441 -30.17099256 30.16195182 -27.29833984 26.42700195 C-23.16749842 21.02182816 -19.5831717 15.37537125 -16.12304688 9.51977539 C-13.67377898 5.4547759 -11.61802245 2.07403693 -6.84310913 0.61946106 C-4.51322597 0.14435155 -2.3772714 0.02896437 0 0 Z " fill="#F9FCFC" transform="translate(496.67333984375,306.822998046875)" />
    <path d="M0 0 C6.39611561 1.06601927 10.22440949 6.39737628 14.63671875 10.8515625 C15.49898071 11.72035034 15.49898071 11.72035034 16.37866211 12.60668945 C17.52806679 13.77055609 18.67102025 14.94083519 19.80688477 16.11791992 C23.54316232 19.93892033 26.08580782 22.43043122 31.625 22.75 C36.5069965 21.20403444 38.1833415 18.59074856 41.08984375 14.49609375 C43.82173459 12.18449381 45.7898554 11.91476746 49.33911133 12.12475586 C52.77974505 12.86453956 55.1698006 14.87025298 57.75 17.125 C58.88957251 18.05467703 60.03020482 18.98305644 61.171875 19.91015625 C61.72166016 20.36664551 62.27144531 20.82313477 62.83789062 21.29345703 C73.26578968 29.90276759 85.72280831 36.40636369 98.18359375 41.57421875 C101.92045225 43.21171854 104.25303916 44.9932858 106.875 48.1875 C108.00421875 49.51974609 108.00421875 49.51974609 109.15625 50.87890625 C109.8884375 51.76449219 110.620625 52.65007812 111.375 53.5625 C117.82864826 61.02773202 124.71819695 67.96824083 131.78710938 74.84985352 C132.50833984 75.55940186 133.22957031 76.2689502 133.97265625 77 C134.62758057 77.63808594 135.28250488 78.27617187 135.95727539 78.93359375 C137.375 80.5625 137.375 80.5625 137.375 82.5625 C137.90609375 82.76488281 138.4371875 82.96726562 138.984375 83.17578125 C142.41734803 85.16712999 144.88345085 87.90748615 147.625 90.75 C152.37663473 95.58450061 157.19453115 100.18685399 162.375 104.5625 C163.365 105.43003906 164.355 106.29757812 165.375 107.19140625 C171.79579394 112.80458251 178.35072161 118.19258268 185.125 123.375 C186.13324829 124.14674561 186.13324829 124.14674561 187.16186523 124.93408203 C188.51342236 125.95813321 189.87368415 126.97078634 191.24194336 127.97241211 C192.71609087 129.07131593 194.15847464 130.21366918 195.57250977 131.38891602 C202.69528305 136.99831242 210.08129683 138.46101885 218.8125 139.875 C220.16772679 140.11291579 221.52255031 140.35314056 222.87695312 140.59570312 C226.70565157 141.27548615 230.53978124 141.92047422 234.375 142.5625 C236.5126066 142.92580376 238.64944637 143.29367619 240.78515625 143.66796875 C241.65406494 143.8177417 242.52297363 143.96751465 243.41821289 144.12182617 C245.375 144.5625 245.375 144.5625 246.375 145.5625 C246.46374135 148.66501201 246.49018455 151.7451812 246.47265625 154.84765625 C246.4712413 155.77847519 246.46982635 156.70929413 246.46836853 157.6683197 C246.46275172 160.65391191 246.4501964 163.63943029 246.4375 166.625 C246.43248716 168.64387913 246.42792388 170.66275943 246.42382812 172.68164062 C246.41277683 177.64195572 246.39550095 182.60221532 246.375 187.5625 C242.918712 187.04716107 239.75009657 186.48580626 236.51953125 185.14453125 C235.82520996 184.86270996 235.13088867 184.58088867 234.41552734 184.29052734 C233.68027832 183.98840332 232.9450293 183.6862793 232.1875 183.375 C207.05673281 173.39577461 181.10093356 168.28972295 154.375 164.5625 C153.51438965 164.44245605 152.6537793 164.32241211 151.76708984 164.19873047 C101.05308034 157.48290249 39.98833455 163.51736272 -2.29882812 194.49023438 C-7.84138814 198.75120125 -12.84067999 203.4784662 -17.625 208.5625 C-18.95481067 209.89934671 -20.28728314 211.23356465 -21.625 212.5625 C-22.01429688 212.01722656 -22.40359375 211.47195313 -22.8046875 210.91015625 C-44.25964027 181.99046184 -85.32705317 169.99898078 -119.36352539 164.72143555 C-148.0757433 160.71239382 -176.95890379 161.63773221 -205.625 165.5625 C-207.09346207 165.74452556 -208.56217833 165.92452409 -210.03125 166.1015625 C-216.31063086 166.90696135 -222.37189566 168.10333884 -228.48828125 169.734375 C-230.64277661 170.30318324 -232.80798755 170.83242498 -234.98046875 171.328125 C-243.97959501 173.41432919 -252.72607718 176.11078646 -261.5 179 C-262.64090088 179.37141113 -263.78180176 179.74282227 -264.95727539 180.12548828 C-271.15188284 182.1992428 -276.94632306 184.5334716 -282.70361328 187.62915039 C-284.625 188.5625 -284.625 188.5625 -286.625 188.5625 C-286.625 174.3725 -286.625 160.1825 -286.625 145.5625 C-283.16 144.5725 -283.16 144.5725 -279.625 143.5625 C-276.44716571 142.57280951 -273.27377515 141.57005141 -270.1015625 140.5625 C-267.55808165 139.83089202 -265.09339035 139.21612723 -262.51171875 138.671875 C-256.51746026 137.37295052 -250.6774982 135.59616747 -244.8125 133.8125 C-243.71357422 133.49023438 -242.61464844 133.16796875 -241.48242188 132.8359375 C-231.51572627 129.80540425 -221.5696505 126.20767998 -214.0625 118.75 C-210.67291406 115.42720393 -207.20929179 112.40495116 -203.49609375 109.44140625 C-197.34699255 104.45221972 -191.7896454 98.95307396 -186.25 93.3125 C-185.28303513 92.3354592 -184.31558844 91.35889501 -183.34765625 90.3828125 C-181.57526518 88.59316588 -179.80495834 86.80145048 -178.03759766 85.00683594 C-174.126759 81.04454929 -170.18048594 77.11844324 -166.2265625 73.19921875 C-164.56764302 71.54954484 -162.90879068 69.89980342 -161.25 68.25 C-160.0125 67.02506836 -160.0125 67.02506836 -158.75 65.77539062 C-152.71232377 59.76167342 -146.98201748 53.61566935 -141.73828125 46.89453125 C-136.37358188 40.07773992 -132.17486099 35.50699338 -123.71875 32.703125 C-116.97458079 30.21663837 -110.96988892 25.75449081 -104.984375 21.83203125 C-101.79428923 20.11551159 -99.1859253 20.35303381 -95.625 20.5625 C-94.95345067 21.85163487 -94.28791141 23.14390204 -93.625 24.4375 C-93.068125 25.51644531 -93.068125 25.51644531 -92.5 26.6171875 C-91.625 28.5625 -91.625 28.5625 -91.625 30.5625 C-85.81503357 30.16860397 -83.04431973 29.59187975 -78.625 25.5625 C-77.965 25.5625 -77.305 25.5625 -76.625 25.5625 C-76.23828125 24.68851562 -76.23828125 24.68851562 -75.84375 23.796875 C-71.88619341 16.54135458 -63.50088463 9.93295608 -56.625 5.5625 C-52.8125 4.75 -52.8125 4.75 -49.625 5.5625 C-47.56742863 7.18689845 -46.26972375 8.56755206 -44.625 10.5625 C-43.10659415 12.23137851 -41.58553504 13.89784506 -40.0625 15.5625 C-37.77613515 18.09850261 -35.58929361 20.60979764 -33.53125 23.3359375 C-31.77729289 25.8410641 -31.77729289 25.8410641 -28.6875 26.1875 C-24.69095442 25.37187845 -23.14661943 23.55232463 -20.625 20.5625 C-19.16817511 18.95696331 -17.70968509 17.35293676 -16.25 15.75 C-12.81383236 11.91227688 -9.40915782 8.04871517 -6.03515625 4.15625 C-2.90929466 0.62342029 -2.90929466 0.62342029 0 0 Z " fill="#26A0A8" transform="translate(533.625,392.4375)" />
    <path d="M0 0 C2.4628523 0.25416336 4.92326964 0.45256293 7.39257812 0.63183594 C32.8401128 2.59680537 58.05905246 8.35572441 82.56445312 15.26464844 C83.51723145 15.52777832 84.47000977 15.7909082 85.45166016 16.06201172 C112.30405519 23.50918942 112.30405519 23.50918942 119.56445312 30.26464844 C120.05892944 32.66200256 120.05892944 32.66200256 120.05029297 35.53051758 C120.05952286 37.14217552 120.05952286 37.14217552 120.06893921 38.78639221 C120.04738266 40.52553139 120.04738266 40.52553139 120.02539062 42.29980469 C120.02447418 43.48940292 120.02355774 44.67900116 120.02261353 45.90464783 C120.01656816 48.42060331 120.00079441 50.93655128 119.97607422 53.45239258 C119.93956596 57.31520941 119.93505475 61.17706775 119.93554688 65.04003906 C119.92571635 67.48080261 119.91405963 69.92155962 119.90039062 72.36230469 C119.89816498 73.52375504 119.89593933 74.68520538 119.89364624 75.8818512 C119.88088654 76.95313766 119.86812683 78.02442413 119.85498047 79.12817383 C119.84735687 80.07398819 119.83973328 81.01980255 119.83187866 81.99427795 C119.56445312 84.26464844 119.56445312 84.26464844 117.56445312 86.26464844 C112.41216937 86.89831145 108.76544918 85.23179454 104.25195312 83.01464844 C82.7070324 73.08833678 58.88142194 72.87879449 35.56445312 72.95214844 C33.9420018 72.95288864 33.9420018 72.95288864 32.28677368 72.9536438 C2.02359082 72.86070023 2.02359082 72.86070023 -27.92871094 76.78271484 C-30.93600367 77.36086014 -33.87430967 77.55179856 -36.93164062 77.72949219 C-38.83888916 77.84466187 -38.83888916 77.84466187 -40.78466797 77.9621582 C-41.78660187 78.02078537 -41.78660187 78.02078537 -42.80877686 78.08059692 C-53.31997505 78.69953342 -63.82219148 79.39124258 -74.31054688 80.32714844 C-75.2302124 80.40634521 -76.14987793 80.48554199 -77.09741211 80.56713867 C-81.09402784 80.5800433 -81.09402784 80.5800433 -84.43554688 82.26464844 C-88.26109788 82.54821354 -92.1007608 82.49660239 -95.93554688 82.51464844 C-97.53269531 82.54558594 -97.53269531 82.54558594 -99.16210938 82.57714844 C-109.16090165 82.62628255 -116.57668608 80.77886574 -124.35742188 74.35839844 C-131.66606051 66.99480763 -134.64758662 58.3406288 -134.71343994 48.16534424 C-134.70939148 47.13077087 -134.70534302 46.09619751 -134.70117188 45.03027344 C-134.70308533 43.95590027 -134.70499878 42.8815271 -134.70697021 41.77459717 C-134.7083275 39.51200119 -134.70466303 37.2493973 -134.69628906 34.98681641 C-134.6855413 31.5128449 -134.6962215 28.03938561 -134.70898438 24.56542969 C-134.70766352 22.36620979 -134.70510267 20.16699022 -134.70117188 17.96777344 C-134.70522034 16.92510315 -134.7092688 15.88243286 -134.71343994 14.8081665 C-134.70713562 13.84666687 -134.7008313 12.88516724 -134.69433594 11.89453125 C-134.69274475 11.04658997 -134.69115356 10.19864868 -134.68951416 9.32501221 C-134.43554688 7.26464844 -134.43554688 7.26464844 -132.43554688 5.26464844 C-92.083314 -6.6014731 -41.24861057 -4.42908074 0 0 Z " fill="#279DA2" transform="translate(381.435546875,611.7353515625)" />
    <path d="M0 0 C2.7132844 0.00008095 5.42639884 -0.00682894 8.13964844 -0.02050781 C31.05535867 -0.13402341 53.64239994 0.94479347 76.33862305 4.18530273 C77.57547852 4.35030273 78.81233398 4.51530273 80.08666992 4.68530273 C89.33475864 5.97549931 89.33475864 5.97549931 93.52612305 8.18530273 C93.62843812 14.51654078 93.69796787 20.84756182 93.74584961 27.17944336 C93.76583289 29.32861295 93.79302898 31.47772909 93.82788086 33.62670898 C94.28812266 62.7573079 94.28812266 62.7573079 83.8815918 73.95483398 C74.49707979 83.03353704 64.71391825 83.56255666 52.23071289 83.47802734 C47.83889752 83.39234276 43.83351988 83.04686357 39.52612305 82.18530273 C37.45579909 81.98903766 35.38229001 81.82487673 33.30737305 81.68530273 C32.12788086 81.60280273 30.94838867 81.52030273 29.7331543 81.43530273 C28.50983398 81.35280273 27.28651367 81.27030273 26.02612305 81.18530273 C23.59883746 81.02160803 21.1717428 80.855051 18.74487305 80.68530273 C17.67172852 80.61311523 16.59858398 80.54092773 15.49291992 80.46655273 C12.76987352 80.20841009 10.20208158 79.73328701 7.52612305 79.18530273 C5.82436967 79.00332478 4.11940243 78.84980865 2.4128418 78.72045898 C1.42453369 78.6436792 0.43622559 78.56689941 -0.58203125 78.48779297 C-2.16818237 78.3689978 -2.16818237 78.3689978 -3.78637695 78.24780273 C-6.04943815 78.07384794 -8.31245808 77.89935542 -10.57543945 77.72436523 C-12.30068848 77.59143066 -12.30068848 77.59143066 -14.06079102 77.45581055 C-18.27056938 77.12216002 -22.47672363 76.75276705 -26.68334961 76.38183594 C-46.02782118 74.69922532 -65.24898021 74.09317797 -84.66137695 74.06030273 C-85.55823212 74.0576239 -86.45508728 74.05494507 -87.37911987 74.05218506 C-100.15312127 74.02324128 -112.4990988 74.29578065 -125.03637695 76.99780273 C-125.85992676 77.17375977 -126.68347656 77.3497168 -127.53198242 77.53100586 C-133.46544596 78.84981405 -138.97304818 80.5706492 -144.47387695 83.18530273 C-154.48915785 87.90979712 -154.48915785 87.90979712 -158.47387695 87.18530273 C-161.0321938 84.62698589 -160.7444863 83.635459 -160.79614258 80.08056641 C-160.81535767 79.01573532 -160.83457275 77.95090424 -160.85437012 76.85380554 C-160.86286987 75.6986293 -160.87136963 74.54345306 -160.88012695 73.35327148 C-160.8915271 72.16937332 -160.90292725 70.98547516 -160.91467285 69.76570129 C-160.93359317 67.256435 -160.94664888 64.74711879 -160.9543457 62.23779297 C-160.97374735 58.39844951 -161.03576328 54.56125196 -161.09887695 50.72241211 C-161.11193789 48.28687798 -161.12243849 45.8513285 -161.13012695 43.41577148 C-161.15482056 42.26666794 -161.17951416 41.11756439 -161.20495605 39.93363953 C-161.16209435 32.26214865 -161.16209435 32.26214865 -159.34094238 29.41261292 C-155.95080316 26.35635211 -151.71422392 24.90009434 -147.44262695 23.50170898 C-146.7784375 23.28071533 -146.11424805 23.05972168 -145.42993164 22.83203125 C-143.2824185 22.12252249 -141.12893504 21.43402143 -138.97387695 20.74780273 C-137.47441427 20.26174394 -135.97506615 19.77533155 -134.47583008 19.28857422 C-130.15043976 17.89286508 -125.8148473 16.53168266 -121.47387695 15.18530273 C-119.84385742 14.67870117 -119.84385742 14.67870117 -118.1809082 14.16186523 C-104.70836815 10.05283143 -91.17602196 7.64581595 -77.2512207 5.62451172 C-74.59124899 5.20386394 -71.96876562 4.6942085 -69.33325195 4.14233398 C-64.56420072 3.15913197 -59.81904744 2.57802709 -54.97387695 2.12280273 C-54.2159082 2.04481445 -53.45793945 1.96682617 -52.67700195 1.88647461 C-35.13739763 0.1749487 -17.60972848 -0.00275605 0 0 Z " fill="#19949E" transform="translate(686.473876953125,610.814697265625)" />
    <path d="M0 0 C1.03512726 -0.03220139 2.07025452 -0.06440277 3.13674927 -0.09757996 C7.88762698 -0.20837091 12.638374 -0.29065419 17.39013672 -0.35253906 C19.89282492 -0.3941965 22.39526657 -0.45556042 24.89697266 -0.53710938 C28.50883518 -0.65293543 32.11654955 -0.70282414 35.72998047 -0.73950195 C36.84172638 -0.78797775 37.95347229 -0.83645355 39.09890747 -0.88639832 C43.87644053 -0.87519202 46.8317957 -0.79076012 50.50071716 2.45146179 C52.54522648 4.97596946 54.32944042 7.50971511 56.03466797 10.2722168 C57.09621094 11.90223633 57.09621094 11.90223633 58.17919922 13.56518555 C58.72962891 14.52038086 59.28005859 15.47557617 59.84716797 16.4597168 C64.03472903 23.44171684 68.79808732 29.89647357 73.66308594 36.41674805 C75.80788188 39.31821639 77.8883222 42.26434139 79.97216797 45.2097168 C85.06028642 52.37503389 90.33619626 59.39445336 95.63134766 66.4074707 C96.92131058 68.12158637 98.20288313 69.84147324 99.47998047 71.56518555 C103.73352182 77.29338671 108.11402233 82.87414052 112.66357422 88.36987305 C115.27725018 91.56915021 117.81296207 94.82252396 120.34716797 98.0847168 C124.74274585 103.73673254 129.32492805 109.19844699 134.06323242 114.56640625 C136.75458796 117.64465271 139.05939981 120.68870667 141.03466797 124.2722168 C134.49102193 122.31381377 128.55487671 119.73628752 122.53466797 116.5222168 C121.69734131 116.0775708 120.86001465 115.6329248 119.99731445 115.17480469 C114.18661535 112.0300641 109.05021271 108.57924592 104.03466797 104.2722168 C96.69916653 97.58976768 96.69916653 97.58976768 87.72216797 94.2097168 C83.11831613 95.53625038 81.46651879 97.54655476 78.67529297 101.3269043 C76.90500009 103.42596585 75.58536461 104.30558374 73.03466797 105.2722168 C67.77289967 105.39180244 65.12252357 103.05400316 61.46044922 99.6550293 C57.75100394 96.01129078 54.06590581 92.3429385 50.42700195 88.62866211 C46.51448973 84.56745046 46.51448973 84.56745046 41.34716797 82.7722168 C32.96691979 84.03715992 27.006946 95.06853033 22.03466797 101.2722168 C16.54629588 108.08949254 16.54629588 108.08949254 12.19091797 108.6159668 C8.08167619 108.16842561 7.14291233 106.90967015 4.53466797 103.7722168 C3.76896484 102.8647168 3.00326172 101.9572168 2.21435547 101.0222168 C-0.16223373 98.02379602 -2.4803295 94.99935491 -4.67626953 91.8659668 C-6.91182051 89.10201285 -8.73378119 88.30593238 -12.21142578 87.79956055 C-17.21718906 88.42983875 -19.41925293 90.48189524 -23.02783203 93.8347168 C-23.61371094 94.3484082 -24.19958984 94.86209961 -24.80322266 95.39135742 C-28.37487837 98.58245936 -31.53922807 101.97124284 -34.56713867 105.68041992 C-37.50725524 109.02764535 -40.66355137 111.95668272 -45.18798828 112.5769043 C-47.40283203 112.5847168 -47.40283203 112.5847168 -50.96533203 112.2722168 C-52.28533203 109.3022168 -53.60533203 106.3322168 -54.96533203 103.2722168 C-61.73275218 102.50728234 -65.42511834 104.89898738 -70.96533203 108.5847168 C-81.32175128 115.31812696 -81.32175128 115.31812696 -86.96533203 117.2722168 C-87.95533203 116.9422168 -88.94533203 116.6122168 -89.96533203 116.2722168 C-83.56400464 107.60512747 -77.07904155 99.11970535 -70.09423828 90.9128418 C-68.16990142 88.52595791 -66.53978587 86.14783661 -64.96533203 83.5222168 C-64.30533203 82.4497168 -63.64533203 81.3772168 -62.96533203 80.2722168 C-62.30533203 80.2722168 -61.64533203 80.2722168 -60.96533203 80.2722168 C-60.57474609 79.42723633 -60.57474609 79.42723633 -60.17626953 78.56518555 C-58.84295386 76.04048781 -57.29519224 73.8758475 -55.59033203 71.5847168 C-50.4751956 64.63219381 -45.51490294 57.5742746 -40.54736328 50.51586914 C-38.97215427 48.28189217 -37.39151953 46.05185929 -35.80908203 43.82299805 C-30.7393648 36.67688368 -25.73411811 29.50612351 -20.91064453 22.19018555 C-17.98896408 17.80766487 -14.96656957 13.49699324 -11.94580078 9.18237305 C-10.67555116 7.31583268 -9.46303615 5.40788427 -8.32861328 3.45581055 C-6.09664467 -0.11917643 -3.97581553 0.12168 0 0 Z " fill="#8ECCCE" transform="translate(492.96533203125,310.727783203125)" />
    <path d="M0 0 C1.11890625 0.40863281 2.2378125 0.81726563 3.390625 1.23828125 C21.21927053 8.17429174 42.12707716 20.01857271 52 37 C52 37.66 52 38.32 52 39 C47.66478592 37.62951297 43.48054271 36.00683389 39.27758789 34.28442383 C22.97928729 27.6142896 6.75979438 22.41476728 -10.42919922 18.57470703 C-12.92521993 18.01671722 -15.41787792 17.44553903 -17.91015625 16.87109375 C-49.79945443 9.57380176 -82.16400861 7.6074524 -114.8125 7.75 C-116.71731644 7.75465271 -116.71731644 7.75465271 -118.66061401 7.75939941 C-145.52000494 7.83629444 -171.53744022 9.07549274 -198 14 C-198.96454102 14.17853516 -199.92908203 14.35707031 -200.92285156 14.54101562 C-212.61900849 16.65202318 -212.61900849 16.65202318 -224 20 C-225 18 -225 18 -224.4375 15.8125 C-220.63079689 8.36460262 -216.56491709 5.312955 -208.5199585 2.68959045 C-206.5183206 2.06672055 -204.51029137 1.46929725 -202.5 0.875 C-201.09454212 0.44341027 -199.68935222 0.01094696 -198.28442383 -0.42236328 C-178.47735566 -6.45925132 -158.51036333 -10.23003686 -138 -13 C-137.16339844 -13.12004395 -136.32679688 -13.24008789 -135.46484375 -13.36376953 C-90.92383827 -19.60062568 -42.05458095 -15.83427616 0 0 Z " fill="#8BD0C9" transform="translate(450,593)" />
    <path d="M0 0 C2.88831102 0.91816699 5.78728041 1.70858622 8.71484375 2.48950195 C12.67905966 3.66815081 14.82247442 4.9538003 17.25 8.4309082 C17.80945313 9.19274414 18.36890625 9.95458008 18.9453125 10.73950195 C20.125 12.9934082 20.125 12.9934082 20.125 16.9934082 C12.72596407 16.00785073 5.44115538 14.67412604 -1.86645508 13.1652832 C-31.09937805 7.13778609 -60.63318742 5.63324047 -90.43408203 5.73266602 C-94.27001518 5.74346455 -98.10548633 5.73264176 -101.94140625 5.7199707 C-117.0232281 5.71109737 -131.8843861 6.32367893 -146.875 7.9934082 C-148.80134277 8.20441162 -148.80134277 8.20441162 -150.76660156 8.41967773 C-184.91593234 12.470872 -218.13579252 20.55723642 -249.77050781 34.09741211 C-252.12444599 35.09961085 -254.49317977 36.05945795 -256.875 36.9934082 C-246.86188198 15.16481091 -220.19246224 3.90471949 -199.08813477 -4.1027832 C-186.28550267 -8.81109039 -173.34595863 -11.94233009 -159.875 -14.0065918 C-158.93277588 -14.15112793 -157.99055176 -14.29566406 -157.01977539 -14.44458008 C-104.3655999 -22.05972336 -50.35367485 -16.58809592 0 0 Z " fill="#5FB9C5" transform="translate(780.875,595.006591796875)" />
    <path d="M0 0 C0.75410156 0.00451172 1.50820313 0.00902344 2.28515625 0.01367188 C4.14847127 0.02546501 6.01174555 0.04340058 7.875 0.0625 C7.875 0.7225 7.875 1.3825 7.875 2.0625 C8.865 2.5575 8.865 2.5575 9.875 3.0625 C9.524375 3.84625 9.17375 4.63 8.8125 5.4375 C8.3484375 6.736875 8.3484375 6.736875 7.875 8.0625 C8.37 9.0525 8.37 9.0525 8.875 10.0625 C8.215 10.3925 7.555 10.7225 6.875 11.0625 C6.875 12.0525 6.875 13.0425 6.875 14.0625 C5.885 14.84625 4.895 15.63 3.875 16.4375 C0.61931845 18.66838064 0.61931845 18.66838064 0.6875 21.5 C0.749375 22.345625 0.81125 23.19125 0.875 24.0625 C-0.09261608 26.07836684 -1.09067096 28.08003602 -2.125 30.0625 C-2.125 31.0525 -2.125 32.0425 -2.125 33.0625 C-4.125 34.75 -4.125 34.75 -6.125 36.0625 C-5.60329224 37.01503662 -5.60329224 37.01503662 -5.07104492 37.98681641 C-3.48373996 40.88643097 -1.89810623 43.78695619 -0.3125 46.6875 C0.50831055 48.18603516 0.50831055 48.18603516 1.34570312 49.71484375 C2.40240963 51.64893688 3.45481191 53.58538923 4.50244141 55.52441406 C5.57627841 57.51011478 6.66597634 59.48724 7.76171875 61.4609375 C9.03482314 64.43598145 9.47153531 65.87296038 8.875 69.0625 C7.50358745 71.69558182 5.84159512 74.08181896 4.125 76.5 C3.6815625 77.14259766 3.238125 77.78519531 2.78125 78.44726562 C1.90413842 79.71778754 1.02077335 80.98401767 0.13085938 82.24560547 C-1.05389152 83.95962494 -2.15941106 85.70745487 -3.265625 87.47265625 C-5.125 90.0625 -5.125 90.0625 -8.125 91.0625 C-8.7025 90.588125 -9.28 90.11375 -9.875 89.625 C-13.16306344 87.34162261 -15.17410792 87.5996 -19.125 88.0625 C-21.79292065 89.58478413 -23.94393285 91.54044536 -26.1875 93.625 C-26.77337891 94.13869141 -27.35925781 94.65238281 -27.96289062 95.18164062 C-31.53454634 98.37274256 -34.69889604 101.76152604 -37.72680664 105.47070312 C-40.66692321 108.81792855 -43.82321933 111.74696592 -48.34765625 112.3671875 C-50.5625 112.375 -50.5625 112.375 -54.125 112.0625 C-55.445 109.0925 -56.765 106.1225 -58.125 103.0625 C-64.89242015 102.29756554 -68.5847863 104.68927059 -74.125 108.375 C-84.48141925 115.10841016 -84.48141925 115.10841016 -90.125 117.0625 C-91.115 116.7325 -92.105 116.4025 -93.125 116.0625 C-86.72367261 107.39541068 -80.23870952 98.90998855 -73.25390625 90.703125 C-71.32956939 88.31624111 -69.69945384 85.93811981 -68.125 83.3125 C-67.465 82.24 -66.805 81.1675 -66.125 80.0625 C-65.465 80.0625 -64.805 80.0625 -64.125 80.0625 C-63.73441406 79.21751953 -63.73441406 79.21751953 -63.3359375 78.35546875 C-62.00262183 75.83077102 -60.45486021 73.6661307 -58.75 71.375 C-53.63486357 64.42247701 -48.67457091 57.3645578 -43.70703125 50.30615234 C-42.13182224 48.07217537 -40.55118749 45.8421425 -38.96875 43.61328125 C-33.89903276 36.46716688 -28.89378608 29.29640671 -24.0703125 21.98046875 C-21.14863205 17.59794808 -18.12623754 13.28727644 -15.10546875 8.97265625 C-13.83521913 7.10611588 -12.62270412 5.19816747 -11.48828125 3.24609375 C-8.7605972 -1.12289017 -4.63997463 -0.05208953 0 0 Z " fill="#C7E6DE" transform="translate(496.125,310.9375)" />
    <path d="M0 0 C0.36351562 1.42892578 0.36351562 1.42892578 0.734375 2.88671875 C1.06953125 4.14097656 1.4046875 5.39523437 1.75 6.6875 C2.23726562 8.54955078 2.23726562 8.54955078 2.734375 10.44921875 C4.02224471 14.06240876 5.36159012 16.24466637 8 19 C12.73241563 21.09106737 17.94511707 21.94409112 23 23 C23.042721 24.66611905 23.04063832 26.33382885 23 28 C20.91858446 30.08141554 16.81393047 29.73088761 13.9375 30.0625 C13.17888672 30.15337891 12.42027344 30.24425781 11.63867188 30.33789062 C9.7595699 30.5624374 7.87983905 30.78170978 6 31 C5.8659375 31.61617188 5.731875 32.23234375 5.59375 32.8671875 C5 35 5 35 3.5 37.125 C1.339148 41.266633 1.2596775 45.38848575 1 50 C-3 50 -3 50 -4.69140625 48.37890625 C-6.72463595 44.68267674 -6.83176677 40.92069747 -7.27734375 36.77734375 C-7.77950133 33.95902663 -7.77950133 33.95902663 -9.6484375 32.19921875 C-12.65927665 30.66379081 -15.33857357 30.28752173 -18.6875 29.875 C-24.91464968 29.08535032 -24.91464968 29.08535032 -26 28 C-26.125 25.5 -26.125 25.5 -26 23 C-24.04848373 21.04848373 -20.54831255 21.29031251 -17.9375 20.9375 C-16.64714844 20.76089844 -15.35679687 20.58429688 -14.02734375 20.40234375 C-12.52880859 20.20318359 -12.52880859 20.20318359 -11 20 C-11 19.34 -11 18.68 -11 18 C-10.01 17.34 -9.02 16.68 -8 16 C-7.33735788 12.98958611 -7.05009555 10.00893999 -6.72265625 6.9453125 C-5.82829428 3.30018318 -4.12461816 0 0 0 Z " fill="#F9FCFC" transform="translate(619,310)" />
    <path d="M0 0 C3.28503603 1.04434727 4.20307604 2.26628163 6.2421875 5.01953125 C6.93054688 5.92574219 7.61890625 6.83195312 8.328125 7.765625 C9.08351563 8.77753906 9.83890625 9.78945313 10.6171875 10.83203125 C12.3541611 13.09228008 14.10906052 15.33821309 15.8671875 17.58203125 C16.55192139 18.46012451 16.55192139 18.46012451 17.25048828 19.35595703 C21.22459202 24.41727672 25.38733197 29.30185786 29.64550781 34.12597656 C32.33697414 37.20428415 34.64186186 40.24841683 36.6171875 43.83203125 C30.07348659 41.8736118 24.13754352 39.29589635 18.1171875 36.08203125 C17.28058594 35.63811035 16.44398438 35.19418945 15.58203125 34.73681641 C10.60654211 32.04565297 6.01341236 29.23535088 1.68359375 25.5703125 C-0.93040947 23.3713873 -3.67605008 21.39358162 -6.4453125 19.39453125 C-7.38503906 18.71519531 -8.32476563 18.03585937 -9.29296875 17.3359375 C-10.32744141 16.59150391 -10.32744141 16.59150391 -11.3828125 15.83203125 C-11.03347656 15.31253906 -10.68414063 14.79304688 -10.32421875 14.2578125 C-7.79797423 10.38614597 -6.17060252 7.42747303 -5.3828125 2.83203125 C-3.68456408 0.28465862 -3.09325958 -0.21804945 0 0 Z " fill="#69BCC5" transform="translate(597.3828125,391.16796875)" />
    <path d="M0 0 C0.75410156 0.00451172 1.50820313 0.00902344 2.28515625 0.01367188 C4.14847127 0.02546501 6.01174555 0.04340058 7.875 0.0625 C7.875 0.7225 7.875 1.3825 7.875 2.0625 C8.535 2.3925 9.195 2.7225 9.875 3.0625 C9.3490625 4.238125 9.3490625 4.238125 8.8125 5.4375 C8.503125 6.30375 8.19375 7.17 7.875 8.0625 C8.205 8.7225 8.535 9.3825 8.875 10.0625 C7.885 10.5575 7.885 10.5575 6.875 11.0625 C6.875 12.0525 6.875 13.0425 6.875 14.0625 C5.885 14.84625 4.895 15.63 3.875 16.4375 C0.61931845 18.66838064 0.61931845 18.66838064 0.6875 21.5 C0.749375 22.345625 0.81125 23.19125 0.875 24.0625 C-0.09261608 26.07836684 -1.09067096 28.08003602 -2.125 30.0625 C-2.125 31.0525 -2.125 32.0425 -2.125 33.0625 C-3.42235507 34.10875409 -4.75766972 35.10951223 -6.125 36.0625 C-6.455 36.7225 -6.785 37.3825 -7.125 38.0625 C-7.80046875 37.18207031 -8.4759375 36.30164063 -9.171875 35.39453125 C-10.07289046 34.22133404 -10.9739336 33.04815808 -11.875 31.875 C-12.54015625 31.0077832 -12.54015625 31.0077832 -13.21875 30.12304688 C-15.81830026 26.73980867 -18.44729468 23.38460637 -21.125 20.0625 C-19.54307245 15.55744547 -17.20802964 11.79020059 -14.625 7.8125 C-14.22152344 7.17570312 -13.81804687 6.53890625 -13.40234375 5.8828125 C-9.44778113 -0.25132753 -6.95375183 -0.07806457 0 0 Z " fill="#AEDBD5" transform="translate(496.125,310.9375)" />
    <path d="M0 0 C3.88780009 4.43281879 6.51921077 9.31626347 9.25 14.5 C9.70890625 15.34175781 10.1678125 16.18351562 10.640625 17.05078125 C11.07375 17.86933594 11.506875 18.68789063 11.953125 19.53125 C12.54335449 20.63823242 12.54335449 20.63823242 13.14550781 21.76757812 C14.14922237 24.3898541 14.29198541 26.21192939 14 29 C13.14550781 30.84936523 13.14550781 30.84936523 11.953125 32.55859375 C11.3034375 33.50895508 11.3034375 33.50895508 10.640625 34.47851562 C10.18171875 35.12498047 9.7228125 35.77144531 9.25 36.4375 C8.8065625 37.08009766 8.363125 37.72269531 7.90625 38.38476562 C7.02913842 39.65528754 6.14577335 40.92151767 5.25585938 42.18310547 C4.07110848 43.89712494 2.96558894 45.64495487 1.859375 47.41015625 C0 50 0 50 -3 51 C-4.34400833 50.01439389 -5.67607028 49.01241685 -7 48 C-9.64934822 47.28566879 -9.64934822 47.28566879 -12 47 C-10.02 46.505 -10.02 46.505 -8 46 C-8.495 44.515 -8.495 44.515 -9 43 C-8.38290413 40.98415349 -7.71706982 38.98248715 -7 37 C-7 36.34 -7 35.68 -7 35 C-6.34 35 -5.68 35 -5 35 C-5.185625 34.154375 -5.37125 33.30875 -5.5625 32.4375 C-6.15129083 27.81128634 -6.20373755 23.75545059 -3.5 19.8125 C-3.005 19.214375 -2.51 18.61625 -2 18 C-1.33820153 16.01954441 -1.33820153 16.01954441 -1 14 C-0.79375 13.319375 -0.5875 12.63875 -0.375 11.9375 C0.20416064 9.79458748 0.20416064 9.79458748 -1 7 C-0.67 6.01 -0.34 5.02 0 4 C-0.33 3.34 -0.66 2.68 -1 2 C-0.67 1.34 -0.34 0.68 0 0 Z " fill="#B4DED8" transform="translate(491,351)" />
    <path d="M0 0 C0.33 0 0.66 0 1 0 C1.19335938 0.79664063 1.38671875 1.59328125 1.5859375 2.4140625 C2.12170129 4.59424979 2.6757502 6.77000861 3.24609375 8.94140625 C4 12 4 12 4.4375 15.5625 C6.54868705 18.85595181 8.25611725 18.83522531 12 19.75 C13.0725 19.95109375 14.145 20.1521875 15.25 20.359375 C18 21 18 21 20 23 C19.24074219 23.20496094 18.48148438 23.40992188 17.69921875 23.62109375 C16.70535156 23.89050781 15.71148438 24.15992188 14.6875 24.4375 C13.70136719 24.70433594 12.71523438 24.97117187 11.69921875 25.24609375 C9.78482474 25.78079425 7.88566385 26.37144538 6 27 C4.09747216 30.74346306 3.28189915 34.73145384 2.375 38.8125 C2.11460937 39.97394531 1.85421875 41.13539063 1.5859375 42.33203125 C1.39257812 43.21246094 1.19921875 44.09289062 1 45 C-1.00909735 41.98635397 -1.35817588 40.59510477 -1.875 37.125 C-2.7544633 32.67595038 -3.34889779 29.95565417 -7 27 C-10.93302794 25.41105671 -14.9186079 24.14869369 -19 23 C-16.86411586 21.86020104 -14.83848869 20.94845926 -12.52734375 20.2109375 C-7.51108597 18.69577907 -7.51108597 18.69577907 -3.75390625 15.27734375 C-2.95264244 13.18907588 -2.44010435 11.19286776 -2 9 C-1.80019531 8.16855469 -1.60039063 7.33710938 -1.39453125 6.48046875 C-0.88904291 4.32620635 -0.42714937 2.17092385 0 0 Z " fill="#7FCBCA" transform="translate(617,313)" />
    <path d="M0 0 C4.38936578 1.47671971 7.77229496 3.85427917 11.375 6.6875 C11.94790771 7.13448242 12.52081543 7.58146484 13.11108398 8.04199219 C19.37279974 12.99167019 24.95690236 18.04587206 29 25 C29 25.66 29 26.32 29 27 C23.57835307 25.28180976 18.33426818 23.18601342 13.0625 21.0625 C12.19431641 20.71509766 11.32613281 20.36769531 10.43164062 20.00976562 C7.95122559 19.0142249 5.47546848 18.00776286 3 17 C1.93434814 16.57823486 1.93434814 16.57823486 0.84716797 16.14794922 C-3.88699076 14.22601849 -3.88699076 14.22601849 -5 12 C-4.34 12 -3.68 12 -3 12 C-3.061875 11.319375 -3.12375 10.63875 -3.1875 9.9375 C-2.94131737 6.08063875 -1.64197838 3.48920406 0 0 Z " fill="#7AC5C7" transform="translate(473,605)" />
    <path d="M0 0 C0.33 0 0.66 0 1 0 C1.05064837 6.49614132 1.0857117 12.99223185 1.10986328 19.48852539 C1.11993006 21.69915673 1.13358448 23.90977472 1.15087891 26.12036133 C1.17509738 29.29511811 1.18647627 32.46969906 1.1953125 35.64453125 C1.20563507 36.63524124 1.21595764 37.62595123 1.22659302 38.64668274 C1.22674408 39.56741074 1.22689514 40.48813873 1.22705078 41.43676758 C1.231492 42.2472908 1.23593323 43.05781403 1.24050903 43.89289856 C1 46 1 46 -1 49 C-1.19262883 42.82559884 -1.37129392 36.65100961 -1.53710938 30.47583008 C-1.59545746 28.37578538 -1.6575998 26.2758425 -1.72363281 24.17602539 C-1.81796351 21.15529926 -1.89857999 18.13446821 -1.9765625 15.11328125 C-2.00875885 14.17664139 -2.0409552 13.24000153 -2.0741272 12.27497864 C-2.17851196 7.71839873 -2.21468684 4.13080668 0 0 Z " fill="#4AB1B3" transform="translate(779,619)" />
    <path d="M0 0 C0.99 0.33 1.98 0.66 3 1 C2.01 1.495 2.01 1.495 1 2 C1.33 15.53 1.66 29.06 2 43 C0.515 43.495 0.515 43.495 -1 44 C-1.02464513 37.8944529 -1.04283371 31.78893449 -1.05493164 25.68334961 C-1.05997288 23.60456844 -1.06680574 21.52579084 -1.07543945 19.44702148 C-1.08751422 16.46597414 -1.09323024 13.48497351 -1.09765625 10.50390625 C-1.10539818 9.10078941 -1.10539818 9.10078941 -1.11329651 7.66932678 C-1.11337204 6.80850998 -1.11344757 5.94769318 -1.11352539 5.06079102 C-1.115746 4.29912125 -1.11796661 3.53745148 -1.12025452 2.75270081 C-1 1 -1 1 0 0 Z " fill="#62C2BA" transform="translate(248,537)" />
    <path d="M0 0 C0.33 0.66 0.66 1.32 1 2 C0.67 2.66 0.34 3.32 0 4 C0.99 4.33 1.98 4.66 3 5 C1.35 5 -0.3 5 -2 5 C-1.01 5.66 -0.02 6.32 1 7 C-0.72095223 8.72095223 -2.97163914 8.17199761 -5.3125 8.1875 C-6.27800781 8.20167969 -7.24351562 8.21585938 -8.23828125 8.23046875 C-11.01519158 7.99873224 -12.63473141 7.42140844 -15 6 C-11.87463585 3.3554611 -8.96837686 2.0132026 -5 1 C-4.01 1.33 -3.02 1.66 -2 2 C-1.34 1.34 -0.68 0.68 0 0 Z " fill="#0E8895" transform="translate(447,676)" />
    <path d="M0 0 C0.66 0.33 1.32 0.66 2 1 C1.01 2.32 0.02 3.64 -1 5 C-0.67 5.66 -0.34 6.32 0 7 C-2.28779038 8.03040167 -4.57951136 9.04952018 -6.875 10.0625 C-7.52597656 10.35705078 -8.17695313 10.65160156 -8.84765625 10.95507812 C-10.54010541 11.69661513 -12.26868575 12.35439001 -14 13 C-14.66 12.67 -15.32 12.34 -16 12 C-10.66666667 8 -5.33333333 4 0 0 Z " fill="#47B5AF" transform="translate(267,566)" />
    <path d="M0 0 C0.66 0.33 1.32 0.66 2 1 C2 1.66 2 2.32 2 3 C2.66 3.33 3.32 3.66 4 4 C4 4.66 4 5.32 4 6 C2.02 6.99 2.02 6.99 0 8 C-1.32 7.01 -2.64 6.02 -4 5 C-2.68 3.35 -1.36 1.7 0 0 Z " fill="#56BFB7" transform="translate(386,446)" />
    <path d="M0 0 C0.66 1.32 1.32 2.64 2 4 C1.01 4.495 1.01 4.495 0 5 C0.33 5.99 0.66 6.98 1 8 C0.67 8.66 0.34 9.32 0 10 C-0.66 10 -1.32 10 -2 10 C-2.66 9.34 -3.32 8.68 -4 8 C-4 4.09161134 -2.49432124 2.88405893 0 0 Z " fill="#42B2AD" transform="translate(277,628)" />
    <path d="M0 0 C10.55808656 0.77904328 10.55808656 0.77904328 15 3 C15 3.33 15 3.66 15 4 C9.47322267 4.19392201 5.24385089 3.7479503 0 2 C0 1.34 0 0.68 0 0 Z " fill="#1F8F9C" transform="translate(457,684)" />
    <path d="M0 0 C0 0.99 0 1.98 0 3 C-0.66 3.66 -1.32 4.32 -2 5 C-1.67 5.66 -1.34 6.32 -1 7 C-1.66 7 -2.32 7 -3 7 C-3.33 7.66 -3.66 8.32 -4 9 C-4.66 9 -5.32 9 -6 9 C-7.62514468 10.45833358 -7.62514468 10.45833358 -9 12 C-9.66 11.67 -10.32 11.34 -11 11 C-7.37 7.37 -3.74 3.74 0 0 Z " fill="#61C0BB" transform="translate(375,458)" />
    <path d="M0 0 C1.32 0.33 2.64 0.66 4 1 C2.948125 1.70125 1.89625 2.4025 0.8125 3.125 C-2.80290238 5.68958421 -5.30881071 8.49329881 -8 12 C-8.66 11.67 -9.32 11.34 -10 11 C-6.7 7.37 -3.4 3.74 0 0 Z " fill="#5EBFBA" transform="translate(402,428)" />
    <path d="M0 0 C2.25245881 2.68841859 3.88213958 4.64641875 5 8 C-0.75 6.25 -0.75 6.25 -3 4 C-2.01 4 -1.02 4 0 4 C0 2.68 0 1.36 0 0 Z " fill="#7FC6CA" transform="translate(497,624)" />
    <path d="M0 0 C-2.62198774 2.15377564 -4.64404172 3.40072174 -8 4 C-8.66 3.01 -9.32 2.02 -10 1 C-6.78548731 -0.60725635 -3.56387464 -0.05748185 0 0 Z " fill="#47B3B0" transform="translate(293,612)" />
    <path d="M0 0 C1.953125 0.35807292 3.90625 0.71614583 5.859375 1.07421875 C5.859375 1.73421875 5.859375 2.39421875 5.859375 3.07421875 C1.899375 3.07421875 -2.060625 3.07421875 -6.140625 3.07421875 C-2.140625 0.07421875 -2.140625 0.07421875 0 0 Z " fill="#1F95A1" transform="translate(618.140625,552.92578125)" />
    <path d="M0 0 C0.33 0.66 0.66 1.32 1 2 C0.0625 4.625 0.0625 4.625 -1 7 C-0.34 7.33 0.32 7.66 1 8 C-0.32 8.33 -1.64 8.66 -3 9 C-4 7 -4 7 -3.1875 4.5 C-2 2 -2 2 0 0 Z " fill="#9FD6D5" transform="translate(229,604)" />
    <path d="M0 0 C0 0.99 0 1.98 0 3 C-1.96466413 4.06775224 -3.96855359 5.06553465 -6 6 C-6.66 5.67 -7.32 5.34 -8 5 C-2.25 0 -2.25 0 0 0 Z " fill="#5ABDB8" transform="translate(259,573)" />
</svg>
